<svg xmlns="http://www.w3.org/2000/svg" width="1600" height="1000" viewBox="0 0 1600 1000" role="img" aria-labelledby="title desc">
  <title id="title">Landed Cost and Supplier Comparison Model cover</title>
  <desc id="desc">Portfolio cover showing landed cost, supplier score, freight cost, and recommendation dashboard metrics.</desc>
  <defs>
    <linearGradient id="navy" x1="0" y1="0" x2="1" y2="1">
      <stop offset="0" stop-color="#061833" />
      <stop offset="0.58" stop-color="#0b2342" />
      <stop offset="1" stop-color="#102f55" />
    </linearGradient>
    <pattern id="grid" width="54" height="54" patternUnits="userSpaceOnUse">
      <path d="M 54 0 L 0 0 0 54" fill="none" stroke="#2d66a6" stroke-width="1" opacity="0.24" />
    </pattern>
    <filter id="shadow" x="-10%" y="-10%" width="120%" height="120%">
      <feDropShadow dx="0" dy="18" stdDeviation="18" flood-color="#021026" flood-opacity="0.28" />
    </filter>
  </defs>

  <rect width="1600" height="1000" fill="url(#navy)" />
  <rect width="1600" height="1000" fill="url(#grid)" />
  <rect x="52" y="52" width="1496" height="896" fill="none" stroke="#7aa7df" stroke-width="2" opacity="0.28" />

  <g transform="translate(108 104)">
    <text x="0" y="0" fill="#74a7f4" font-family="IBM Plex Mono, Menlo, Consolas, monospace" font-size="22" font-weight="700" letter-spacing="4">SOURCING COST MODEL</text>
    <text x="0" y="94" fill="#ffffff" font-family="Georgia, 'Times New Roman', serif" font-size="92" font-weight="700">Landed Cost</text>
    <text x="0" y="188" fill="#ffffff" font-family="Georgia, 'Times New Roman', serif" font-size="92" font-weight="700">&amp; Supplier</text>
    <text x="0" y="282" fill="#ffffff" font-family="Georgia, 'Times New Roman', serif" font-size="92" font-weight="700">Comparison Model</text>
    <text x="3" y="350" fill="#c9d7ea" font-family="Inter, Arial, sans-serif" font-size="30">Unit price, freight, duty, supplier risk, lead time,</text>
    <text x="3" y="392" fill="#c9d7ea" font-family="Inter, Arial, sans-serif" font-size="30">warranty, margin, and award recommendation in one view.</text>
  </g>

  <g transform="translate(918 96)" filter="url(#shadow)">
    <rect x="0" y="0" width="540" height="348" rx="0" fill="#ffffff" stroke="#b6c8de" stroke-width="2" />
    <text x="34" y="50" fill="#0b63ce" font-family="IBM Plex Mono, Menlo, Consolas, monospace" font-size="18" font-weight="700" letter-spacing="2">EXECUTIVE DASHBOARD</text>
    <g transform="translate(34 86)">
      <rect width="214" height="92" fill="#f4f8fd" stroke="#c9d8eb" />
      <text x="18" y="31" fill="#65758b" font-family="Inter, Arial, sans-serif" font-size="17">Total Landed Cost</text>
      <text x="18" y="70" fill="#061833" font-family="Georgia, 'Times New Roman', serif" font-size="42" font-weight="700">$2.38M</text>
    </g>
    <g transform="translate(292 86)">
      <rect width="214" height="92" fill="#f4f8fd" stroke="#c9d8eb" />
      <text x="18" y="31" fill="#65758b" font-family="Inter, Arial, sans-serif" font-size="17">Gross Margin</text>
      <text x="18" y="70" fill="#061833" font-family="Georgia, 'Times New Roman', serif" font-size="42" font-weight="700">$718K</text>
    </g>
    <g transform="translate(34 212)">
      <rect width="472" height="18" fill="#dce8f6" />
      <rect width="332" height="18" fill="#0b63ce" />
      <text x="0" y="-12" fill="#061833" font-family="Inter, Arial, sans-serif" font-size="18" font-weight="700">Recommended quotes</text>
      <text x="424" y="-12" fill="#061833" font-family="Inter, Arial, sans-serif" font-size="18" font-weight="700">10</text>
    </g>
    <g transform="translate(34 278)">
      <rect width="472" height="18" fill="#dce8f6" />
      <rect width="390" height="18" fill="#1e9a8a" />
      <text x="0" y="-12" fill="#061833" font-family="Inter, Arial, sans-serif" font-size="18" font-weight="700">Option 1 freight saving</text>
      <text x="392" y="-12" fill="#061833" font-family="Inter, Arial, sans-serif" font-size="18" font-weight="700">12.89%</text>
    </g>
  </g>

  <g transform="translate(108 560)" filter="url(#shadow)">
    <rect width="710" height="292" fill="#ffffff" stroke="#b6c8de" stroke-width="2" />
    <rect width="710" height="58" fill="#eef5ff" />
    <text x="28" y="37" fill="#0b63ce" font-family="IBM Plex Mono, Menlo, Consolas, monospace" font-size="17" font-weight="700" letter-spacing="2">SUPPLIER COMPARISON</text>
    <g font-family="Inter, Arial, sans-serif" font-size="20">
      <text x="28" y="98" fill="#061833" font-weight="700">Supplier</text>
      <text x="284" y="98" fill="#061833" font-weight="700">Role</text>
      <text x="508" y="98" fill="#061833" font-weight="700">Decision</text>
      <path d="M 26 118 H 684" stroke="#d5dfeb" />
      <text x="28" y="158" fill="#42536a">Apple</text>
      <text x="284" y="158" fill="#42536a">Premium</text>
      <text x="508" y="158" fill="#0b63ce" font-weight="700">Recommended</text>
      <path d="M 26 178 H 684" stroke="#d5dfeb" />
      <text x="28" y="218" fill="#42536a">Ingram Micro</text>
      <text x="284" y="218" fill="#42536a">Bulk</text>
      <text x="508" y="218" fill="#1e9a8a" font-weight="700">Backup</text>
      <path d="M 26 238 H 684" stroke="#d5dfeb" />
      <text x="28" y="278" fill="#42536a">Marketplace</text>
      <text x="284" y="278" fill="#42536a">Spot buy</text>
      <text x="508" y="278" fill="#d77b1f" font-weight="700">Review risk</text>
    </g>
  </g>

  <g transform="translate(878 560)" filter="url(#shadow)">
    <rect width="580" height="292" fill="#ffffff" stroke="#b6c8de" stroke-width="2" />
    <rect width="580" height="58" fill="#eef5ff" />
    <text x="28" y="37" fill="#0b63ce" font-family="IBM Plex Mono, Menlo, Consolas, monospace" font-size="17" font-weight="700" letter-spacing="2">DECISION LOGIC</text>
    <g transform="translate(42 100)" font-family="Inter, Arial, sans-serif" font-size="23" font-weight="700">
      <rect x="0" y="0" width="172" height="58" fill="#f8fbff" stroke="#c9d8eb" />
      <text x="24" y="38" fill="#061833">Unit Price</text>
      <path d="M 178 29 H 220" stroke="#0b63ce" stroke-width="4" />
      <rect x="226" y="0" width="172" height="58" fill="#f8fbff" stroke="#c9d8eb" />
      <text x="250" y="38" fill="#061833">Freight</text>
      <path d="M 404 29 H 446" stroke="#0b63ce" stroke-width="4" />
      <rect x="452" y="0" width="82" height="58" fill="#0b63ce" />
      <text x="475" y="38" fill="#ffffff">Fit</text>
    </g>
    <g transform="translate(42 194)" font-family="Inter, Arial, sans-serif" font-size="23" font-weight="700">
      <rect x="0" y="0" width="172" height="58" fill="#f8fbff" stroke="#c9d8eb" />
      <text x="33" y="38" fill="#061833">Risk</text>
      <path d="M 178 29 H 220" stroke="#1e9a8a" stroke-width="4" />
      <rect x="226" y="0" width="172" height="58" fill="#f8fbff" stroke="#c9d8eb" />
      <text x="249" y="38" fill="#061833">Margin</text>
      <path d="M 404 29 H 446" stroke="#1e9a8a" stroke-width="4" />
      <rect x="452" y="0" width="82" height="58" fill="#1e9a8a" />
      <text x="467" y="38" fill="#ffffff">Pick</text>
    </g>
  </g>
</svg>
